# xmcd
#
# Track frame offsets: 
#        300
#        12831
#        25077
#        38145
#        48667
#        60343
#        69934
#        81189
#        91756
#        104037
#        115803
#        129906
#        143986
#        159933
#
# Disc length: 2310 seconds
#
# Revision: 1
# Processed by: cddbd v1.5.2PL0 Copyright (c) Steve Scherf et al.
# Submitted via: ExactAudioCopyFreeDBPlugin 1.0
#
DISCID=ad09020e
DTITLE=King Automatic - In The Blue Corner
DYEAR=2009
DGENRE=Blues
TTITLE0=King Takes Queen
TTITLE1=In The Blue Corner
TTITLE2=Staircase Serenade
TTITLE3=Le Redresseur De Tortis
TTITLE4=Moodswings
TTITLE5=Fake Skinheads In Love
TTITLE6=Things Are What They Are But Never What They Seem
TTITLE7=Let's Have A Party
TTITLE8=Vague Information
TTITLE9=There Is No Truth In The Night
TTITLE10=There Goes George
TTITLE11=Doctor Jekyll and Sister Hide
TTITLE12=Nighty Sword Of Truth
TTITLE13=Black Magic
EXTD=YEAR: 2009
EXTT0=
EXTT1=
EXTT2=
EXTT3=
EXTT4=
EXTT5=
EXTT6=
EXTT7=
EXTT8=
EXTT9=
EXTT10=
EXTT11=
EXTT12=
EXTT13=
PLAYORDER=
